<?xml version="1.0" encoding="utf-8"?>
<!-- Generator: Adobe Illustrator 16.0.0, SVG Export Plug-In . SVG Version: 6.00 Build 0)  -->
<!DOCTYPE svg PUBLIC "-//W3C//DTD SVG 1.1//EN" "http://www.w3.org/Graphics/SVG/1.1/DTD/svg11.dtd">
<svg version="1.1" id="图层_1" xmlns="http://www.w3.org/2000/svg" xmlns:xlink="http://www.w3.org/1999/xlink" x="0px" y="0px"
	 width="1000px" height="400px" viewBox="0 0 1000 400" enable-background="new 0 0 1000 400" xml:space="preserve">
<g>
	<path fill="#969696" d="M39.063,112.929c25.259,17.709,48.438,35.419,69.531,53.125l-36.719,40.625
		c-17.188-16.925-39.453-35.938-66.797-57.031L39.063,112.929z M56.25,223.085c15.884,7.813,32.94,14.585,51.172,20.313
		c-18.491,57.294-33.725,106.899-45.703,148.827c-18.491-7.031-36.2-13.152-53.125-18.359
		C23.956,334.022,39.844,283.764,56.25,223.085z M43.359,9.022c24.737,15.366,49.219,32.031,73.438,50L82.031,98.866
		C62.5,81.679,38.8,63.319,10.938,43.788L43.359,9.022z M386.719,249.647h-91.992c26.563,31.382,60.221,54.95,100.977,70.703
		c-9.638,15.106-19.794,31.899-30.469,50.391c-36.328-20.835-66.278-48.306-89.844-82.422v103.905h-52.344v-107.03
		c-24.091,33.335-55.078,63.409-92.969,90.233c-9.116-15.887-19.013-31.381-29.688-46.483
		c37.891-21.094,71.158-47.524,99.805-79.297h-84.57v-45.313h107.422v-51.563h52.344v51.563h111.328V249.647z M239.063,124.647
		c-31.25,25.263-60.547,47.138-87.891,65.625l-32.031-36.719c30.469-18.228,58.853-38.931,85.156-62.109L239.063,124.647z
		 M120.313,112.929V27.382h258.203v85.547h-50.391V72.694H170.703v40.234H120.313z M260.938,124.647l32.422-32.813
		c32.813,22.656,61.719,43.491,86.719,62.5l-33.203,36.719C318.487,167.616,289.844,145.482,260.938,124.647z"/>
</g>
<g>
	<path fill="#969696" d="M636.941,112.601c19.791,14.325,40.363,30.731,61.719,49.219l-35.156,42.188
		c-8.074-8.072-27.605-26.172-58.594-54.297L636.941,112.601z M650.613,229.008c16.145,7.031,32.941,13.152,50.391,18.359
		c-11.98,44.012-24.09,92.188-36.328,144.53c-16.928-5.99-34.115-11.328-51.563-16.016
		C626.395,333.176,638.895,284.217,650.613,229.008z M649.051,8.695c20.313,14.844,41.275,31.513,62.891,50l-36.328,39.453
		c-17.969-17.706-38.021-35.547-60.156-53.516L649.051,8.695z M692.801,200.101h35.352l6.055-62.5
		c-5.99,6.513-12.109,12.891-18.359,19.141c-8.594-11.978-19.402-25.65-32.422-41.016c34.895-34.894,61.197-70.962,78.906-108.203
		l54.688,7.031c-3.516,7.685-7.293,15.234-11.328,22.656h178.516v41.797H780.496c-5.99,8.856-12.371,17.578-19.141,26.172h201.758
		l-1.563,94.922h31.25v40.235H960.77l-1.172,53.516h29.688v39.844h-30.664c-0.912,20.049-5.145,33.818-12.695,41.308
		c-7.553,7.486-18.426,12.043-32.617,13.672c-14.193,1.627-42.383,2.701-84.57,3.223c-3.646-13.543-7.553-27.216-11.719-41.015
		c25,0.781,44.66,1.172,58.984,1.172c7.941,0,14.811-0.815,20.605-2.441c5.793-1.631,8.951-6.934,9.473-15.918H715.457l8.984-93.359
		h-31.641V200.101z M802.566,262.992l24.609-22.656h-51.563l-5.078,53.516h72.852C829.453,282.914,815.848,272.629,802.566,262.992z
		 M803.738,167.289l23.828-22.266h-42.578l-5.469,55.078h66.602L803.738,167.289z M882.254,270.414l-23.828,23.438h49.023
		l1.172-53.516h-71.094C848.465,247.498,863.373,257.523,882.254,270.414z M883.035,175.101l-25.391,25h51.563l0.781-55.078h-71.094
		C849.832,152.317,864.545,162.342,883.035,175.101z"/>
</g>
<g>
</g>
<g>
</g>
<g>
</g>
<g>
</g>
<g>
</g>
<g>
</g>
<g>
</g>
<g>
</g>
<g>
</g>
<g>
</g>
<g>
</g>
<g>
</g>
<g>
</g>
<g>
</g>
<g>
</g>
</svg>
