<?xml version="1.0" encoding="utf-8"?>
<!-- Generator: Adobe Illustrator 19.0.0, SVG Export Plug-In . SVG Version: 6.00 Build 0)  -->
<svg version="1.1" id="图层_1" xmlns="http://www.w3.org/2000/svg" xmlns:xlink="http://www.w3.org/1999/xlink" x="0px" y="0px"
	 viewBox="0 0 360.8 22.7" style="enable-background:new 0 0 360.8 22.7;" xml:space="preserve">
<style type="text/css">
	.st0{fill:#646464;}
</style>
<g id="XMLID_1_">
	<path id="XMLID_108_" class="st0" d="M11.6,14.3c0,0.1-0.1,0.1-0.2,0.1h-0.1c-0.1,0-0.7,0-1.9,0c-0.2,0-0.5,0-0.7,0
		c-0.1,0-0.3,0-0.6,0c-0.1,0-0.2,0-0.2-0.1c0-0.1,0.1-0.1,0.4-0.1c0.4,0,0.6-0.1,0.7-0.1C9,14,9,13.7,9,13.2V5.7C9,5.3,9,5,8.9,5
		C8.9,4.9,8.6,4.8,8.1,4.8c-0.2,0-0.3,0-0.3-0.1c0-0.1,0.1-0.1,0.2-0.1H10c0.1,0,0.4,0,0.8,0l0.5,0c0.2,0,0.2,0,0.2,0.1
		c0,0.1-0.2,0.1-0.6,0.1c-0.2,0-0.4,0.1-0.4,0.1c-0.1,0.1-0.1,0.3-0.1,0.6v7.6c0,0.5,0,0.8,0.1,0.9c0.1,0.1,0.4,0.2,0.9,0.2
		C11.5,14.2,11.6,14.2,11.6,14.3z"/>
	<path id="XMLID_110_" class="st0" d="M19.3,8.1c0,0.1-0.1,0.1-0.3,0.1c0,0-0.1,0-0.2,0h-0.2c-0.1,0-0.1,0-0.1,0.1s0,0.2,0,0.4v5.2
		c0,0.3,0,0.5,0,0.6c0,0.1-0.1,0.1-0.1,0.1c-0.1,0-0.4-0.4-1-1.2c-0.1-0.1-0.2-0.2-0.3-0.4c0,0-0.1-0.1-0.2-0.2
		c-0.5-0.6-1.3-1.8-2.6-3.5v4.5c0,0.4,0,0.5,0.1,0.6c0.1,0,0.3,0,0.5,0H15c0.1,0,0.2,0,0.2,0.1c0,0.1-0.1,0.1-0.3,0.1
		c0,0-0.2,0-0.5,0c-0.1,0-0.3,0-0.4,0c-0.1,0-0.2,0-0.3,0c-0.2,0-0.4,0-0.6,0c-0.2,0-0.2,0-0.2-0.1c0-0.1,0.1-0.1,0.3-0.1h0.1l0.2,0
		c0.2,0,0.3-0.1,0.4-0.1c0,0,0-0.2,0-0.4V9.8c0-0.7,0-1.1-0.1-1.3c-0.1-0.2-0.3-0.3-0.7-0.3c-0.2,0-0.4,0-0.4-0.1
		C12.8,8,12.8,8,12.9,8H13h0.8c0,0,0.1,0,0.2,0c0.1,0,0.2,0,0.3,0h0.5l3.3,4.6V8.7c0-0.2,0-0.4,0-0.4c0,0-0.1-0.1-0.2-0.1
		c-0.1,0-0.2,0-0.3,0h-0.1c-0.2,0-0.3,0-0.3-0.1c0,0,0-0.1,0.1-0.1c0.1,0,0.4,0,1,0c0.5,0,0.8,0,0.9,0C19.3,8,19.3,8,19.3,8.1z"/>
	<path id="XMLID_112_" class="st0" d="M26.2,9.7c0,0.1-0.1,0.2-0.2,0.2c-0.1,0-0.2-0.1-0.2-0.3c0-0.4-0.1-0.7-0.2-0.9
		c-0.2-0.3-0.6-0.5-1.2-0.5c-0.1,0-0.2,0-0.4,0v5.7c0,0.2,0.1,0.3,0.4,0.3s0.4,0,0.4,0.1s-0.1,0.1-0.2,0.1h-0.1c-0.1,0-0.2,0-0.4,0
		c-0.2,0-0.3,0-0.4,0c0,0-0.1,0-0.3,0c-0.2,0-0.5,0-0.8,0h-0.3c-0.2,0-0.3,0-0.3-0.1c0-0.1,0.2-0.1,0.5-0.1c0.1,0,0.2,0,0.2,0
		c0.1,0,0.1-0.1,0.1-0.1s0-0.3,0-0.7V8.2c-0.7,0-1.2,0.1-1.4,0.2S20.9,9,20.9,9.6c0,0.2-0.1,0.3-0.2,0.3c-0.1,0-0.1-0.1-0.1-0.3
		c0-0.3,0-0.8,0.1-1.6H24c0.3,0,0.9,0,1.8,0c0.1,0,0.2,0,0.3,0l0,0.3l0,0.5l0,0.6l0,0.2C26.2,9.6,26.2,9.7,26.2,9.7z"/>
	<path id="XMLID_114_" class="st0" d="M32.9,12.9c0,0,0,0.1,0,0.2s0,0.2,0,0.3v0.8c0,0.1,0,0.2,0,0.3l-2.4,0l-2.7,0
		c-0.2,0-0.3,0-0.3-0.1c0-0.1,0.1-0.1,0.2-0.1c0.3,0,0.5,0,0.5-0.1c0.1,0,0.1-0.2,0.1-0.5V8.8c0-0.4,0-0.6-0.1-0.6
		c-0.1,0-0.2,0-0.5,0c-0.1,0-0.2,0-0.2-0.1C27.6,8,27.6,8,27.7,8h0.3c0.1,0,0.2,0,0.3,0h0.2h0.4c0,0,0.3,0,0.7,0c0.4,0,1,0,1.6,0H32
		c0.2,0,0.4,0,0.6,0v0.1l0,0.2c0,0.1,0.1,0.6,0.1,1.3c0,0,0,0.1,0,0.2c0,0.1,0,0.2-0.1,0.2c-0.1,0-0.1-0.1-0.2-0.3
		c-0.1-0.7-0.4-1.1-0.7-1.3c-0.2-0.1-0.7-0.1-1.5-0.1h-0.7v2.6h0.3c0.6,0,1,0,1.1-0.1s0.2-0.4,0.3-0.8c0-0.3,0.1-0.4,0.2-0.4
		c0.1,0,0.1,0.1,0.1,0.3c0,0.1,0,0.3,0,0.5c0,0.2,0,0.4,0,0.5c0,0.6,0,1,0,1.3c0,0.1,0,0.1,0,0.2c0,0.2,0,0.2-0.1,0.2
		c-0.1,0-0.1-0.1-0.2-0.4c-0.1-0.5-0.1-0.8-0.3-0.9c-0.1-0.1-0.5-0.1-1.1-0.1h-0.3v3.1c1.4,0,2.2,0,2.4-0.1c0.4-0.1,0.6-0.6,0.7-1.4
		c0-0.1,0.1-0.2,0.2-0.2S32.9,12.6,32.9,12.9z"/>
	<path id="XMLID_116_" class="st0" d="M40.2,14.1c0,0.3-0.3,0.5-0.8,0.5c-0.5,0-0.9-0.2-1.2-0.6c-0.1-0.2-0.2-0.3-0.3-0.5
		c0-0.2-0.1-0.6-0.2-1.2c0-0.4-0.2-0.7-0.4-0.8c-0.2-0.2-0.6-0.2-1.1-0.3v2.9c0,0.1,0.2,0.2,0.7,0.2c0.1,0,0.2,0,0.2,0.1
		s-0.1,0.1-0.2,0.1c-0.1,0-0.2,0-0.3,0h-0.5c-0.2,0-0.5,0-0.8,0c-0.3,0-0.4,0-0.5,0h-0.3c-0.3,0-0.4,0-0.4-0.1c0-0.1,0-0.1,0.1-0.1
		c0,0,0.1,0,0.1,0h0.1c0.3,0,0.5-0.1,0.5-0.2V8.5c0-0.1,0-0.2-0.1-0.2c-0.1,0-0.2,0-0.4,0c-0.2,0-0.3,0-0.3-0.1
		C34.3,8,34.3,8,34.5,8h0.1c0.2,0,0.6,0,1.3,0c0.3,0,0.6,0,0.8,0s0.4,0,0.5,0c0.6,0,1.1,0.1,1.5,0.4c0.4,0.3,0.6,0.6,0.6,1
		c0,0.5-0.2,0.8-0.6,1.1c-0.4,0.3-1,0.5-1.7,0.5c0.8,0.1,1.3,0.3,1.6,0.6c0.3,0.3,0.5,0.9,0.6,1.8c0.1,0.6,0.2,0.9,0.5,0.9
		c0,0,0.1,0,0.1,0c0,0,0,0,0-0.1c0-0.1,0-0.1,0-0.1c0-0.2,0.1-0.3,0.3-0.3C40.1,13.8,40.2,13.9,40.2,14.1z M38,9.5
		c0-0.8-0.4-1.3-1.3-1.3c-0.2,0-0.3,0-0.4,0.1c-0.1,0-0.1,0.1-0.1,0.3v2.3C37.4,10.9,38,10.4,38,9.5z"/>
	<path id="XMLID_119_" class="st0" d="M47.6,8.1c0,0.1-0.1,0.1-0.3,0.1c0,0-0.1,0-0.2,0h-0.2c-0.1,0-0.1,0-0.1,0.1s0,0.2,0,0.4v5.2
		c0,0.3,0,0.5,0,0.6c0,0.1-0.1,0.1-0.1,0.1c-0.1,0-0.4-0.4-1-1.2c-0.1-0.1-0.2-0.2-0.3-0.4c0,0-0.1-0.1-0.2-0.2
		c-0.5-0.6-1.3-1.8-2.6-3.5v4.5c0,0.4,0,0.5,0.1,0.6c0.1,0,0.3,0,0.5,0h0.1c0.1,0,0.2,0,0.2,0.1c0,0.1-0.1,0.1-0.3,0.1
		c0,0-0.2,0-0.5,0c-0.1,0-0.3,0-0.4,0c-0.1,0-0.2,0-0.3,0c-0.2,0-0.4,0-0.6,0c-0.2,0-0.2,0-0.2-0.1c0-0.1,0.1-0.1,0.3-0.1h0.1l0.2,0
		c0.2,0,0.3-0.1,0.4-0.1c0,0,0-0.2,0-0.4V9.8c0-0.7,0-1.1-0.1-1.3c-0.1-0.2-0.3-0.3-0.7-0.3c-0.2,0-0.4,0-0.4-0.1
		C41,8,41.1,8,41.2,8h0.1H42c0,0,0.1,0,0.2,0c0.1,0,0.2,0,0.3,0H43l3.3,4.6V8.7c0-0.2,0-0.4,0-0.4c0,0-0.1-0.1-0.2-0.1
		c-0.1,0-0.2,0-0.3,0h-0.1c-0.2,0-0.3,0-0.3-0.1c0,0,0-0.1,0.1-0.1c0.1,0,0.4,0,1,0c0.5,0,0.8,0,0.9,0C47.5,8,47.6,8,47.6,8.1z"/>
	<path id="XMLID_121_" class="st0" d="M54.3,12.9c0,0,0,0.1,0,0.2s0,0.2,0,0.3v0.8c0,0.1,0,0.2,0,0.3l-2.4,0l-2.7,0
		c-0.2,0-0.3,0-0.3-0.1c0-0.1,0.1-0.1,0.2-0.1c0.3,0,0.5,0,0.5-0.1c0.1,0,0.1-0.2,0.1-0.5V8.8c0-0.4,0-0.6-0.1-0.6
		c-0.1,0-0.2,0-0.5,0c-0.1,0-0.2,0-0.2-0.1C48.9,8,49,8,49.1,8h0.3c0.1,0,0.2,0,0.3,0h0.2h0.4c0,0,0.3,0,0.7,0c0.4,0,1,0,1.6,0h0.8
		c0.2,0,0.4,0,0.6,0v0.1l0,0.2c0,0.1,0.1,0.6,0.1,1.3c0,0,0,0.1,0,0.2c0,0.1,0,0.2-0.1,0.2c-0.1,0-0.1-0.1-0.2-0.3
		c-0.1-0.7-0.4-1.1-0.7-1.3c-0.2-0.1-0.7-0.1-1.5-0.1h-0.7v2.6h0.3c0.6,0,1,0,1.1-0.1s0.2-0.4,0.3-0.8c0-0.3,0.1-0.4,0.2-0.4
		c0.1,0,0.1,0.1,0.1,0.3c0,0.1,0,0.3,0,0.5c0,0.2,0,0.4,0,0.5c0,0.6,0,1,0,1.3c0,0.1,0,0.1,0,0.2c0,0.2,0,0.2-0.1,0.2
		c-0.1,0-0.1-0.1-0.2-0.4c-0.1-0.5-0.1-0.8-0.3-0.9c-0.1-0.1-0.5-0.1-1.1-0.1h-0.3v3.1c1.4,0,2.2,0,2.4-0.1c0.4-0.1,0.6-0.6,0.7-1.4
		c0-0.1,0.1-0.2,0.2-0.2S54.3,12.6,54.3,12.9z"/>
	<path id="XMLID_123_" class="st0" d="M61.2,9.7c0,0.1-0.1,0.2-0.2,0.2c-0.1,0-0.2-0.1-0.2-0.3c0-0.4-0.1-0.7-0.2-0.9
		c-0.2-0.3-0.6-0.5-1.2-0.5c-0.1,0-0.2,0-0.4,0v5.7c0,0.2,0.1,0.3,0.4,0.3s0.4,0,0.4,0.1s-0.1,0.1-0.2,0.1h-0.1c-0.1,0-0.2,0-0.4,0
		c-0.2,0-0.3,0-0.4,0c0,0-0.1,0-0.3,0c-0.2,0-0.5,0-0.8,0h-0.3c-0.2,0-0.3,0-0.3-0.1c0-0.1,0.2-0.1,0.5-0.1c0.1,0,0.2,0,0.2,0
		c0.1,0,0.1-0.1,0.1-0.1s0-0.3,0-0.7V8.2c-0.7,0-1.2,0.1-1.4,0.2S55.9,9,55.9,9.6c0,0.2-0.1,0.3-0.2,0.3c-0.1,0-0.1-0.1-0.1-0.3
		c0-0.3,0-0.8,0.1-1.6H59c0.3,0,0.9,0,1.8,0c0.1,0,0.2,0,0.3,0l0,0.3l0,0.5l0,0.6l0,0.2C61.2,9.6,61.2,9.7,61.2,9.7z"/>
	<path id="XMLID_125_" class="st0" d="M69.8,14.3c0,0.1-0.1,0.1-0.2,0.1h-0.1c-0.1,0-0.7,0-1.9,0c-0.2,0-0.5,0-0.7,0
		c-0.1,0-0.3,0-0.6,0c-0.1,0-0.2,0-0.2-0.1c0-0.1,0.1-0.1,0.4-0.1c0.4,0,0.6-0.1,0.7-0.1c0.1-0.1,0.1-0.4,0.1-0.8V5.7
		c0-0.5,0-0.7-0.1-0.8c-0.1-0.1-0.3-0.2-0.8-0.2c-0.2,0-0.3,0-0.3-0.1c0-0.1,0.1-0.1,0.2-0.1h1.9c0.1,0,0.4,0,0.8,0l0.5,0
		c0.2,0,0.2,0,0.2,0.1c0,0.1-0.2,0.1-0.6,0.1c-0.2,0-0.4,0.1-0.4,0.1c-0.1,0.1-0.1,0.3-0.1,0.6v7.6c0,0.5,0,0.8,0.1,0.9
		c0.1,0.1,0.4,0.2,0.9,0.2C69.8,14.2,69.8,14.2,69.8,14.3z"/>
	<path id="XMLID_127_" class="st0" d="M77.5,8.1c0,0.1-0.1,0.1-0.3,0.1c0,0-0.1,0-0.2,0h-0.2c-0.1,0-0.1,0-0.1,0.1s0,0.2,0,0.4v5.2
		c0,0.3,0,0.5,0,0.6c0,0.1-0.1,0.1-0.1,0.1c-0.1,0-0.4-0.4-1-1.2c-0.1-0.1-0.2-0.2-0.3-0.4c0,0-0.1-0.1-0.2-0.2
		c-0.5-0.6-1.3-1.8-2.6-3.5v4.5c0,0.4,0,0.5,0.1,0.6c0.1,0,0.3,0,0.5,0h0.1c0.1,0,0.2,0,0.2,0.1c0,0.1-0.1,0.1-0.3,0.1
		c0,0-0.2,0-0.5,0c-0.1,0-0.3,0-0.4,0c-0.1,0-0.2,0-0.3,0c-0.2,0-0.4,0-0.6,0c-0.2,0-0.2,0-0.2-0.1c0-0.1,0.1-0.1,0.3-0.1h0.1l0.2,0
		c0.2,0,0.3-0.1,0.4-0.1c0,0,0-0.2,0-0.4V9.8c0-0.7,0-1.1-0.1-1.3c-0.1-0.2-0.3-0.3-0.7-0.3c-0.2,0-0.4,0-0.4-0.1
		C71,8,71.1,8,71.2,8h0.1H72c0,0,0.1,0,0.2,0c0.1,0,0.2,0,0.3,0H73l3.3,4.6V8.7c0-0.2,0-0.4,0-0.4c0,0-0.1-0.1-0.2-0.1
		c-0.1,0-0.2,0-0.3,0h-0.1c-0.2,0-0.3,0-0.3-0.1c0,0,0-0.1,0.1-0.1c0.1,0,0.4,0,1,0c0.5,0,0.8,0,0.9,0C77.5,8,77.5,8,77.5,8.1z"/>
	<path id="XMLID_129_" class="st0" d="M84.1,9.7c0,0.1,0,0.2-0.1,0.2c-0.1,0-0.2-0.1-0.2-0.3c-0.1-0.5-0.2-0.9-0.4-1.1
		c-0.2-0.2-0.7-0.3-1.6-0.3c-0.2,0-0.6,0-1,0v2.7h0.3c0.6,0,1-0.1,1.1-0.2s0.2-0.4,0.3-1c0-0.1,0.1-0.2,0.1-0.2
		c0.1,0,0.1,0.1,0.1,0.2c0,0.1,0,0.2,0,0.3c0,0.1,0,0.5,0,1c0,0.1,0,0.2,0,0.4c0,0.2,0,0.4,0,0.7v0.1c0,0.2-0.1,0.3-0.2,0.3
		c-0.1,0-0.1-0.1-0.1-0.2c-0.1-0.6-0.2-0.9-0.3-1c-0.1-0.1-0.5-0.2-1-0.2h-0.5v2.7c0,0.2,0,0.3,0.2,0.3c0,0,0.2,0,0.4,0
		c0.1,0,0.2,0,0.2,0.1s-0.1,0.1-0.2,0.1h-0.2c-0.1,0-0.2,0-0.4,0c-0.2,0-0.3,0-0.3,0h-1.1c-0.1,0-0.2,0-0.3,0c-0.1,0-0.1,0-0.2,0
		c-0.2,0-0.2,0-0.2-0.1c0-0.1,0.1-0.1,0.2-0.1c0.3,0,0.5,0,0.5-0.1s0.1-0.2,0.1-0.4v-5c0-0.3,0-0.4-0.1-0.4s-0.2-0.1-0.5-0.1
		c-0.1,0-0.2,0-0.2-0.1C78.9,8,79,8,79.2,8h2.7c1,0,1.7,0,2-0.1l0,0.1L84,8.7l0.1,0.7C84.1,9.6,84.1,9.7,84.1,9.7z"/>
	<path id="XMLID_131_" class="st0" d="M91.4,14.1c0,0.3-0.3,0.5-0.8,0.5c-0.5,0-0.9-0.2-1.2-0.6c-0.1-0.2-0.2-0.3-0.3-0.5
		c0-0.2-0.1-0.6-0.2-1.2c0-0.4-0.2-0.7-0.4-0.8c-0.2-0.2-0.6-0.2-1.1-0.3v2.9c0,0.1,0.2,0.2,0.7,0.2c0.1,0,0.2,0,0.2,0.1
		s-0.1,0.1-0.2,0.1c-0.1,0-0.2,0-0.3,0h-0.5c-0.2,0-0.5,0-0.8,0c-0.3,0-0.4,0-0.5,0h-0.3c-0.3,0-0.4,0-0.4-0.1c0-0.1,0-0.1,0.1-0.1
		c0,0,0.1,0,0.1,0h0.1c0.3,0,0.5-0.1,0.5-0.2V8.5c0-0.1,0-0.2-0.1-0.2c-0.1,0-0.2,0-0.4,0c-0.2,0-0.3,0-0.3-0.1
		C85.4,8,85.5,8,85.6,8h0.1c0.2,0,0.6,0,1.3,0c0.3,0,0.6,0,0.8,0s0.4,0,0.5,0c0.6,0,1.1,0.1,1.5,0.4c0.4,0.3,0.6,0.6,0.6,1
		c0,0.5-0.2,0.8-0.6,1.1c-0.4,0.3-1,0.5-1.7,0.5c0.8,0.1,1.3,0.3,1.6,0.6c0.3,0.3,0.5,0.9,0.6,1.8c0.1,0.6,0.2,0.9,0.5,0.9
		c0,0,0.1,0,0.1,0c0,0,0,0,0-0.1c0-0.1,0-0.1,0-0.1c0-0.2,0.1-0.3,0.3-0.3C91.3,13.8,91.4,13.9,91.4,14.1z M89.1,9.5
		c0-0.8-0.4-1.3-1.3-1.3c-0.2,0-0.3,0-0.4,0.1c-0.1,0-0.1,0.1-0.1,0.3v2.3C88.6,10.9,89.1,10.4,89.1,9.5z"/>
	<path id="XMLID_134_" class="st0" d="M98.8,14.4c0,0.1-0.1,0.1-0.3,0.1h-0.1h-0.9h-0.4c-0.2,0-0.4,0-0.7,0h-0.4h-0.3h-0.1
		c-0.2,0-0.3,0-0.3-0.1c0-0.1,0.2-0.1,0.5-0.1c0.4,0,0.6-0.1,0.6-0.1c0,0,0-0.1-0.1-0.3c0-0.1-0.1-0.4-0.3-0.9L96,12.4h-2
		c-0.4,1-0.6,1.5-0.6,1.7c0,0.1,0.1,0.1,0.2,0.1l0.2,0H94l0.1,0c0.1,0,0.2,0,0.2,0.1c0,0.1-0.1,0.1-0.3,0.1c0,0-0.2,0-0.5,0
		c-0.3,0-0.6,0-0.8,0h-0.1l-0.1,0l-0.2,0h0c-0.2,0-0.2,0-0.2-0.1c0-0.1,0.1-0.1,0.2-0.1c0.2,0,0.3,0,0.3,0c0.2,0,0.3-0.1,0.3-0.1
		c0.1,0,0.3-0.6,0.7-1.6c0.2-0.4,0.3-0.8,0.5-1.2c0.1-0.1,0.1-0.2,0.1-0.3s0.1-0.2,0.1-0.3c0.2-0.4,0.4-1,0.7-1.8l0.2-0.6l0.1-0.3
		c0.1-0.1,0.1-0.2,0.2-0.2c0,0,0.1,0.1,0.2,0.4c0.3,0.7,1,2.5,2.2,5.5c0.1,0.3,0.2,0.4,0.3,0.5c0,0,0.2,0,0.5,0
		C98.7,14.2,98.8,14.3,98.8,14.4z M95.9,12.1L95,9.7c-0.2,0.6-0.5,1.4-0.9,2.4H95.9z"/>
	<path id="XMLID_137_" class="st0" d="M104,12.6c0,0.5-0.2,1-0.7,1.4c-0.5,0.4-1,0.6-1.6,0.6c-0.5,0-1-0.1-1.5-0.4
		c-0.1,0-0.1,0-0.1,0c-0.1,0-0.1,0-0.1,0.1c0,0.1,0,0.2,0,0.2s-0.1,0.1-0.1,0.1c-0.1,0-0.1,0-0.1-0.1c0,0,0-0.2,0-0.4
		c0-0.3,0-0.5,0-0.7c0-0.1,0-0.2,0-0.4c0-0.2,0-0.3,0-0.4c0-0.2,0-0.3,0.1-0.3s0.2,0.1,0.2,0.4c0.2,1,0.7,1.6,1.7,1.6
		c0.8,0,1.2-0.4,1.2-1.2c0-0.3-0.1-0.6-0.3-0.8c-0.2-0.2-0.6-0.5-1.1-0.7c-0.7-0.4-1.2-0.6-1.4-0.8c-0.3-0.3-0.4-0.6-0.4-1
		c0-0.5,0.2-0.9,0.6-1.3s0.9-0.5,1.4-0.5c0.4,0,0.7,0.1,1.1,0.3c0,0,0.1,0,0.1,0c0.1,0,0.1-0.1,0.1-0.2c0-0.1,0.1-0.2,0.2-0.2
		c0.1,0,0.1,0,0.1,0.1c0,0,0,0.1,0,0.1c0,0.2,0,0.3,0,0.6c0,0.1,0,0.4,0,0.8c0,0,0,0.1,0,0.1c0,0.1,0,0.2-0.1,0.2
		c-0.1,0-0.1-0.1-0.2-0.3c-0.1-0.4-0.3-0.7-0.5-1c-0.3-0.2-0.6-0.4-0.9-0.4c-0.7,0-1,0.4-1,1.1c0,0.3,0.1,0.6,0.3,0.8
		c0.1,0.1,0.2,0.2,0.3,0.3s0.4,0.2,1,0.5c0.6,0.3,1,0.6,1.3,0.9C103.9,11.9,104,12.2,104,12.6z"/>
	<path id="XMLID_139_" class="st0" d="M111,9.7c0,0.1-0.1,0.2-0.2,0.2c-0.1,0-0.2-0.1-0.2-0.3c0-0.4-0.1-0.7-0.2-0.9
		c-0.2-0.3-0.6-0.5-1.2-0.5c-0.1,0-0.2,0-0.4,0v5.7c0,0.2,0.1,0.3,0.4,0.3s0.4,0,0.4,0.1s-0.1,0.1-0.2,0.1h-0.1c-0.1,0-0.2,0-0.4,0
		c-0.2,0-0.3,0-0.4,0c0,0-0.1,0-0.3,0c-0.2,0-0.5,0-0.8,0H107c-0.2,0-0.3,0-0.3-0.1c0-0.1,0.2-0.1,0.5-0.1c0.1,0,0.2,0,0.2,0
		c0.1,0,0.1-0.1,0.1-0.1s0-0.3,0-0.7V8.2c-0.7,0-1.2,0.1-1.4,0.2s-0.4,0.5-0.4,1.1c0,0.2-0.1,0.3-0.2,0.3c-0.1,0-0.1-0.1-0.1-0.3
		c0-0.3,0-0.8,0.1-1.6h3.3c0.3,0,0.9,0,1.8,0c0.1,0,0.2,0,0.3,0l0,0.3l0,0.5l0,0.6l0,0.2C111,9.6,111,9.7,111,9.7z"/>
	<path id="XMLID_141_" class="st0" d="M118.3,14.1c0,0.3-0.3,0.5-0.8,0.5c-0.5,0-0.9-0.2-1.2-0.6c-0.1-0.2-0.2-0.3-0.3-0.5
		c0-0.2-0.1-0.6-0.2-1.2c0-0.4-0.2-0.7-0.4-0.8c-0.2-0.2-0.6-0.2-1.1-0.3v2.9c0,0.1,0.2,0.2,0.7,0.2c0.1,0,0.2,0,0.2,0.1
		s-0.1,0.1-0.2,0.1c-0.1,0-0.2,0-0.3,0h-0.5c-0.2,0-0.5,0-0.8,0c-0.3,0-0.4,0-0.5,0h-0.3c-0.3,0-0.4,0-0.4-0.1c0-0.1,0-0.1,0.1-0.1
		c0,0,0.1,0,0.1,0h0.1c0.3,0,0.5-0.1,0.5-0.2V8.5c0-0.1,0-0.2-0.1-0.2c-0.1,0-0.2,0-0.4,0c-0.2,0-0.3,0-0.3-0.1
		c0-0.1,0.1-0.1,0.2-0.1h0.1c0.2,0,0.6,0,1.3,0c0.3,0,0.6,0,0.8,0s0.4,0,0.5,0c0.6,0,1.1,0.1,1.5,0.4c0.4,0.3,0.6,0.6,0.6,1
		c0,0.5-0.2,0.8-0.6,1.1c-0.4,0.3-1,0.5-1.7,0.5c0.8,0.1,1.3,0.3,1.6,0.6c0.3,0.3,0.5,0.9,0.6,1.8c0.1,0.6,0.2,0.9,0.5,0.9
		c0,0,0.1,0,0.1,0c0,0,0,0,0-0.1c0-0.1,0-0.1,0-0.1c0-0.2,0.1-0.3,0.3-0.3C118.2,13.8,118.3,13.9,118.3,14.1z M116.1,9.5
		c0-0.8-0.4-1.3-1.3-1.3c-0.2,0-0.3,0-0.4,0.1c-0.1,0-0.1,0.1-0.1,0.3v2.3C115.5,10.9,116.1,10.4,116.1,9.5z"/>
	<path id="XMLID_144_" class="st0" d="M125.8,8.1c0,0.1-0.1,0.1-0.2,0.1h-0.1c-0.1,0-0.2,0-0.3,0c-0.2,0-0.2,0.1-0.2,0.3v2.6
		c0,0.9,0,1.5-0.1,1.8c0,0.3-0.1,0.5-0.3,0.8c-0.4,0.6-1,0.9-2,0.9c-0.8,0-1.4-0.2-1.9-0.5c-0.4-0.3-0.6-1-0.6-1.9v-3
		c0-0.5,0-0.8,0-0.8c0,0-0.2-0.1-0.4-0.1c-0.2,0-0.3,0-0.3-0.1c0-0.1,0.1-0.1,0.2-0.1h0.2c0.1,0,0.1,0,0.2,0c0.1,0,0.2,0,0.2,0h1.2
		c0.1,0,0.1,0,0.2,0c0.1,0,0.1,0,0.2,0c0.2,0,0.3,0,0.3,0.1c0,0.1-0.2,0.1-0.5,0.1c-0.1,0-0.2,0-0.2,0c0,0,0,0.1,0,0.3V12
		c0,0.9,0.1,1.5,0.4,1.8c0.3,0.3,0.7,0.5,1.2,0.5c0.7,0,1.2-0.3,1.5-0.9c0.1-0.3,0.2-0.8,0.2-1.5c0,0,0,0,0-0.2c0-0.1,0-0.2,0-0.3
		V8.5c0-0.1,0-0.2-0.1-0.2s-0.2,0-0.4,0c-0.2,0-0.3,0-0.3-0.1c0-0.1,0.1-0.1,0.2-0.1c0,0,0.1,0,0.1,0h0.7c0,0,0.1,0,0.2,0
		c0.1,0,0.3,0,0.5,0h0.2C125.7,8,125.8,8,125.8,8.1z"/>
	<path id="XMLID_146_" class="st0" d="M132.8,12.3c0,0,0,0.1,0,0.2c0,0.5-0.1,0.9-0.1,1.1c0,0.1,0,0.3,0,0.6v0.1
		c0,0.1,0,0.1-0.1,0.1s-0.2-0.1-0.2-0.2l-0.1-0.3c0,0,0,0,0-0.1c-0.4,0.4-1,0.6-1.8,0.6c-1,0-1.7-0.3-2.4-1
		c-0.6-0.6-0.9-1.4-0.9-2.4c0-1,0.3-1.8,0.9-2.4c0.6-0.6,1.3-0.9,2.2-0.9c0.7,0,1.3,0.2,1.8,0.6c0,0,0.1,0.1,0.1,0.1
		c0,0,0.1-0.1,0.1-0.2c0.1-0.2,0.1-0.3,0.2-0.3c0.1,0,0.1,0,0.1,0.1c0,0,0,0.1,0,0.1c-0.1,0.3-0.1,0.8-0.1,1.4
		c0,0.4-0.1,0.6-0.2,0.6c-0.1,0-0.1-0.1-0.2-0.2c-0.1-0.5-0.2-0.9-0.3-1.1c-0.3-0.5-0.8-0.8-1.5-0.8c-0.6,0-1,0.3-1.4,0.8
		c-0.3,0.6-0.5,1.3-0.5,2.3c0,0.9,0.2,1.7,0.6,2.3s0.9,0.8,1.5,0.8c0.5,0,0.9-0.2,1.2-0.5c0.3-0.3,0.5-0.8,0.6-1.4
		c0-0.2,0.1-0.4,0.2-0.4C132.8,12.1,132.8,12.1,132.8,12.3z"/>
	<path id="XMLID_148_" class="st0" d="M140,9.7c0,0.1-0.1,0.2-0.2,0.2c-0.1,0-0.2-0.1-0.2-0.3c0-0.4-0.1-0.7-0.2-0.9
		c-0.2-0.3-0.6-0.5-1.2-0.5c-0.1,0-0.2,0-0.4,0v5.7c0,0.2,0.1,0.3,0.4,0.3s0.4,0,0.4,0.1s-0.1,0.1-0.2,0.1h-0.1c-0.1,0-0.2,0-0.4,0
		c-0.2,0-0.3,0-0.4,0c0,0-0.1,0-0.3,0c-0.2,0-0.5,0-0.8,0h-0.3c-0.2,0-0.3,0-0.3-0.1c0-0.1,0.2-0.1,0.5-0.1c0.1,0,0.2,0,0.2,0
		c0.1,0,0.1-0.1,0.1-0.1s0-0.3,0-0.7V8.2c-0.7,0-1.2,0.1-1.4,0.2s-0.4,0.5-0.4,1.1c0,0.2-0.1,0.3-0.2,0.3c-0.1,0-0.1-0.1-0.1-0.3
		c0-0.3,0-0.8,0.1-1.6h3.3c0.3,0,0.9,0,1.8,0c0.1,0,0.2,0,0.3,0l0,0.3l0,0.5l0,0.6l0,0.2C140,9.6,140,9.7,140,9.7z"/>
	<path id="XMLID_150_" class="st0" d="M147.6,8.1c0,0.1-0.1,0.1-0.2,0.1h-0.1c-0.1,0-0.2,0-0.3,0c-0.2,0-0.2,0.1-0.2,0.3v2.6
		c0,0.9,0,1.5-0.1,1.8c0,0.3-0.1,0.5-0.3,0.8c-0.4,0.6-1,0.9-2,0.9c-0.8,0-1.4-0.2-1.9-0.5c-0.4-0.3-0.6-1-0.6-1.9v-3
		c0-0.5,0-0.8,0-0.8c0,0-0.2-0.1-0.4-0.1c-0.2,0-0.3,0-0.3-0.1c0-0.1,0.1-0.1,0.2-0.1h0.2c0.1,0,0.1,0,0.2,0c0.1,0,0.2,0,0.2,0h1.2
		c0.1,0,0.1,0,0.2,0c0.1,0,0.1,0,0.2,0c0.2,0,0.3,0,0.3,0.1c0,0.1-0.2,0.1-0.5,0.1c-0.1,0-0.2,0-0.2,0c0,0,0,0.1,0,0.3V12
		c0,0.9,0.1,1.5,0.4,1.8c0.3,0.3,0.7,0.5,1.2,0.5c0.7,0,1.2-0.3,1.5-0.9c0.1-0.3,0.2-0.8,0.2-1.5c0,0,0,0,0-0.2c0-0.1,0-0.2,0-0.3
		V8.5c0-0.1,0-0.2-0.1-0.2s-0.2,0-0.4,0c-0.2,0-0.3,0-0.3-0.1c0-0.1,0.1-0.1,0.2-0.1c0,0,0.1,0,0.1,0h0.7c0,0,0.1,0,0.2,0
		c0.1,0,0.3,0,0.5,0h0.2C147.6,8,147.6,8,147.6,8.1z"/>
	<path id="XMLID_152_" class="st0" d="M154.9,14.1c0,0.3-0.3,0.5-0.8,0.5c-0.5,0-0.9-0.2-1.2-0.6c-0.1-0.2-0.2-0.3-0.3-0.5
		c0-0.2-0.1-0.6-0.2-1.2c0-0.4-0.2-0.7-0.4-0.8c-0.2-0.2-0.6-0.2-1.1-0.3v2.9c0,0.1,0.2,0.2,0.7,0.2c0.1,0,0.2,0,0.2,0.1
		s-0.1,0.1-0.2,0.1c-0.1,0-0.2,0-0.3,0h-0.5c-0.2,0-0.5,0-0.8,0c-0.3,0-0.4,0-0.5,0h-0.3c-0.3,0-0.4,0-0.4-0.1c0-0.1,0-0.1,0.1-0.1
		c0,0,0.1,0,0.1,0h0.1c0.3,0,0.5-0.1,0.5-0.2V8.5c0-0.1,0-0.2-0.1-0.2c-0.1,0-0.2,0-0.4,0c-0.2,0-0.3,0-0.3-0.1
		c0-0.1,0.1-0.1,0.2-0.1h0.1c0.2,0,0.6,0,1.3,0c0.3,0,0.6,0,0.8,0s0.4,0,0.5,0c0.6,0,1.1,0.1,1.5,0.4c0.4,0.3,0.6,0.6,0.6,1
		c0,0.5-0.2,0.8-0.6,1.1c-0.4,0.3-1,0.5-1.7,0.5c0.8,0.1,1.3,0.3,1.6,0.6c0.3,0.3,0.5,0.9,0.6,1.8c0.1,0.6,0.2,0.9,0.5,0.9
		c0,0,0.1,0,0.1,0c0,0,0,0,0-0.1c0-0.1,0-0.1,0-0.1c0-0.2,0.1-0.3,0.3-0.3C154.8,13.8,154.9,13.9,154.9,14.1z M152.7,9.5
		c0-0.8-0.4-1.3-1.3-1.3c-0.2,0-0.3,0-0.4,0.1c-0.1,0-0.1,0.1-0.1,0.3v2.3C152.1,10.9,152.7,10.4,152.7,9.5z"/>
	<path id="XMLID_155_" class="st0" d="M161.4,12.9c0,0,0,0.1,0,0.2s0,0.2,0,0.3v0.8c0,0.1,0,0.2,0,0.3l-2.4,0l-2.7,0
		c-0.2,0-0.3,0-0.3-0.1c0-0.1,0.1-0.1,0.2-0.1c0.3,0,0.5,0,0.5-0.1c0.1,0,0.1-0.2,0.1-0.5V8.8c0-0.4,0-0.6-0.1-0.6
		c-0.1,0-0.2,0-0.5,0c-0.1,0-0.2,0-0.2-0.1c0-0.1,0.1-0.1,0.2-0.1h0.3c0.1,0,0.2,0,0.3,0h0.2h0.4c0,0,0.3,0,0.7,0c0.4,0,1,0,1.6,0
		h0.8c0.2,0,0.4,0,0.6,0v0.1l0,0.2c0,0.1,0.1,0.6,0.1,1.3c0,0,0,0.1,0,0.2c0,0.1,0,0.2-0.1,0.2c-0.1,0-0.1-0.1-0.2-0.3
		c-0.1-0.7-0.4-1.1-0.7-1.3c-0.2-0.1-0.7-0.1-1.5-0.1H158v2.6h0.3c0.6,0,1,0,1.1-0.1s0.2-0.4,0.3-0.8c0-0.3,0.1-0.4,0.2-0.4
		c0.1,0,0.1,0.1,0.1,0.3c0,0.1,0,0.3,0,0.5c0,0.2,0,0.4,0,0.5c0,0.6,0,1,0,1.3c0,0.1,0,0.1,0,0.2c0,0.2,0,0.2-0.1,0.2
		c-0.1,0-0.1-0.1-0.2-0.4c-0.1-0.5-0.1-0.8-0.3-0.9c-0.1-0.1-0.5-0.1-1.1-0.1H158v3.1c1.4,0,2.2,0,2.4-0.1c0.4-0.1,0.6-0.6,0.7-1.4
		c0-0.1,0.1-0.2,0.2-0.2S161.4,12.6,161.4,12.9z"/>
</g>
<g id="XMLID_2_">
	<path id="XMLID_104_" class="st0" d="M187.4,10.6c0,0.1-0.2,0.1-0.6,0.1c-0.2,0-0.4,0-0.4,0.1c0,0,0,0.1-0.1,0.2l-0.1,0.4
		c-0.1,0.6-0.4,1.1-0.8,1.6c0.1,0.1,0.1,0.2,0.3,0.4c0.2,0.3,0.3,0.5,0.5,0.6s0.4,0.1,0.9,0.1c0.2,0,0.3,0,0.3,0.1
		c0,0.1-0.1,0.1-0.2,0.1c-0.1,0-0.3,0-0.5,0c-0.3,0-0.5,0-0.7,0c-0.3,0-0.6,0-0.8,0c0-0.1-0.2-0.3-0.4-0.6c-0.5,0.5-1.2,0.7-2.1,0.7
		c-0.7,0-1.2-0.2-1.7-0.5c-0.4-0.3-0.6-0.8-0.6-1.3c0-0.8,0.6-1.5,1.8-2.1c-0.3-0.3-0.5-0.5-0.5-0.5c-0.3-0.3-0.4-0.5-0.4-0.8
		c0-0.4,0.2-0.8,0.5-1.1c0.3-0.3,0.7-0.4,1.3-0.4c0.5,0,0.9,0.1,1.2,0.3c0.3,0.2,0.5,0.5,0.5,0.9c0,0.6-0.5,1.1-1.4,1.4l0.5,0.5
		c0.4,0.4,0.9,1,1.5,1.8c0.4-0.7,0.7-1.3,0.7-1.9c0-0.2-0.1-0.2-0.2-0.2h-0.1c-0.1,0-0.2,0-0.3,0c-0.3,0-0.5,0-0.5-0.1
		c0,0,0.1-0.1,0.2-0.1s0.6,0,1.4,0h0.7C187.3,10.5,187.4,10.5,187.4,10.6z M184.6,13.6c-0.4-0.7-1.2-1.6-2.3-2.7
		c-0.5,0.4-0.8,0.9-0.8,1.5c0,0.5,0.2,0.9,0.5,1.3s0.7,0.5,1.1,0.5C183.7,14.2,184.2,14,184.6,13.6z M183.7,9.2
		c0-0.3-0.1-0.6-0.2-0.8c-0.2-0.2-0.3-0.3-0.6-0.3c-0.2,0-0.4,0.1-0.6,0.2s-0.2,0.4-0.2,0.6c0,0.4,0.3,0.9,1,1.4
		C183.5,10.2,183.7,9.8,183.7,9.2z"/>
</g>
<g id="XMLID_3_">
	<path id="XMLID_57_" class="st0" d="M220.4,9.5c0,1.7-0.6,3-1.7,3.9c-0.9,0.7-2,1-3.4,1c0,0-0.2,0-0.5,0c-0.3,0-0.7,0-1.3,0h-0.7
		h-1.1c-0.1,0-0.1,0-0.2,0c-0.2,0-0.3,0-0.3-0.1c0-0.1,0.2-0.1,0.5-0.1c0.4,0,0.6-0.1,0.7-0.2c0-0.1,0.1-0.2,0.1-0.5V5.8
		c0-0.5,0-0.7-0.1-0.8c-0.1-0.1-0.3-0.1-0.7-0.1c-0.2,0-0.3-0.1-0.3-0.2c0-0.1,0.1-0.1,0.2-0.1c0,0,0.1,0,0.3,0c0.2,0,0.4,0,0.6,0
		h1.5c1.7,0,2.9,0.1,3.6,0.4c0.9,0.3,1.6,0.8,2.1,1.7C220.1,7.5,220.4,8.4,220.4,9.5z M218.8,9.5c0-1.6-0.3-2.7-0.9-3.5
		c-0.6-0.7-1.6-1.1-2.9-1.1c-0.6,0-1,0.1-1.1,0.2c-0.1,0.1-0.1,0.3-0.1,0.7v7.6c0,0.3,0,0.4,0,0.5s0.1,0.1,0.1,0.1
		c0.2,0.1,0.7,0.2,1.4,0.2c1,0,1.8-0.4,2.5-1.1C218.4,12.3,218.8,11.1,218.8,9.5z"/>
	<path id="XMLID_60_" class="st0" d="M227.5,12.9c0,0,0,0.1,0,0.2s0,0.2,0,0.3v0.8c0,0.1,0,0.2,0,0.3l-2.4,0l-2.7,0
		c-0.2,0-0.3,0-0.3-0.1c0-0.1,0.1-0.1,0.2-0.1c0.3,0,0.5,0,0.5-0.1c0.1,0,0.1-0.2,0.1-0.5V8.8c0-0.4,0-0.6-0.1-0.6
		c-0.1,0-0.2,0-0.5,0c-0.1,0-0.2,0-0.2-0.1c0-0.1,0.1-0.1,0.2-0.1h0.3c0.1,0,0.2,0,0.3,0h0.2h0.4c0,0,0.3,0,0.7,0c0.4,0,1,0,1.6,0
		h0.8c0.2,0,0.4,0,0.6,0v0.1l0,0.2c0,0.1,0.1,0.6,0.1,1.3c0,0,0,0.1,0,0.2c0,0.1,0,0.2-0.1,0.2c-0.1,0-0.1-0.1-0.2-0.3
		c-0.1-0.7-0.4-1.1-0.7-1.3c-0.2-0.1-0.7-0.1-1.5-0.1h-0.7v2.6h0.3c0.6,0,1,0,1.1-0.1s0.2-0.4,0.3-0.8c0-0.3,0.1-0.4,0.2-0.4
		c0.1,0,0.1,0.1,0.1,0.3c0,0.1,0,0.3,0,0.5c0,0.2,0,0.4,0,0.5c0,0.6,0,1,0,1.3c0,0.1,0,0.1,0,0.2c0,0.2,0,0.2-0.1,0.2
		c-0.1,0-0.1-0.1-0.2-0.4c-0.1-0.5-0.1-0.8-0.3-0.9c-0.1-0.1-0.5-0.1-1.1-0.1h-0.3v3.1c1.4,0,2.2,0,2.4-0.1c0.4-0.1,0.6-0.6,0.7-1.4
		c0-0.1,0.1-0.2,0.2-0.2S227.5,12.6,227.5,12.9z"/>
	<path id="XMLID_62_" class="st0" d="M234.3,12.9c0,0,0,0.1,0,0.2s0,0.2,0,0.3v0.8c0,0.1,0,0.2,0,0.3l-2.4,0l-2.7,0
		c-0.2,0-0.3,0-0.3-0.1c0-0.1,0.1-0.1,0.2-0.1c0.3,0,0.5,0,0.5-0.1c0.1,0,0.1-0.2,0.1-0.5V8.8c0-0.4,0-0.6-0.1-0.6
		c-0.1,0-0.2,0-0.5,0c-0.1,0-0.2,0-0.2-0.1c0-0.1,0.1-0.1,0.2-0.1h0.3c0.1,0,0.2,0,0.3,0h0.2h0.4c0,0,0.3,0,0.7,0c0.4,0,1,0,1.6,0
		h0.8c0.2,0,0.4,0,0.6,0v0.1l0,0.2c0,0.1,0.1,0.6,0.1,1.3c0,0,0,0.1,0,0.2c0,0.1,0,0.2-0.1,0.2c-0.1,0-0.1-0.1-0.2-0.3
		c-0.1-0.7-0.4-1.1-0.7-1.3c-0.2-0.1-0.7-0.1-1.5-0.1h-0.7v2.6h0.3c0.6,0,1,0,1.1-0.1s0.2-0.4,0.3-0.8c0-0.3,0.1-0.4,0.2-0.4
		c0.1,0,0.1,0.1,0.1,0.3c0,0.1,0,0.3,0,0.5c0,0.2,0,0.4,0,0.5c0,0.6,0,1,0,1.3c0,0.1,0,0.1,0,0.2c0,0.2,0,0.2-0.1,0.2
		c-0.1,0-0.1-0.1-0.2-0.4c-0.1-0.5-0.1-0.8-0.3-0.9c-0.1-0.1-0.5-0.1-1.1-0.1h-0.3v3.1c1.4,0,2.2,0,2.4-0.1c0.4-0.1,0.6-0.6,0.7-1.4
		c0-0.1,0.1-0.2,0.2-0.2S234.3,12.6,234.3,12.9z"/>
	<path id="XMLID_64_" class="st0" d="M240.6,9.5c0,0.5-0.2,0.9-0.6,1.3c-0.4,0.3-1,0.5-1.7,0.5c-0.1,0-0.3,0-0.6,0h-0.1v2.6
		c0,0.3,0.1,0.4,0.2,0.4c0.1,0,0.3,0,0.5,0c0.1,0,0.2,0,0.2,0.1c0,0-0.1,0.1-0.2,0.1c-0.1,0-0.5,0-1.1,0c-0.8,0-1.3,0-1.4,0
		s-0.2,0-0.2-0.1c0-0.1,0-0.1,0.1-0.1h0.2c0.2,0,0.3,0,0.4,0c0,0,0.1,0,0.1,0c0,0,0-0.2,0-0.5V8.9c0-0.4,0-0.6,0-0.6
		c0-0.1-0.2-0.1-0.5-0.1h-0.2c-0.1,0-0.2,0-0.2-0.1c0,0,0.1-0.1,0.2-0.1c0.1,0,0.5,0,1.1,0c1.2,0,2,0,2.2,0.1
		C240.1,8.2,240.6,8.7,240.6,9.5z M239.3,9.6c0-0.9-0.4-1.4-1.2-1.4c-0.2,0-0.4,0-0.4,0.1s-0.1,0.1-0.1,0.3V11
		C238.8,11,239.3,10.5,239.3,9.6z"/>
	<path id="XMLID_67_" class="st0" d="M246.5,12.6c0,0.5-0.2,1-0.7,1.4c-0.5,0.4-1,0.6-1.6,0.6c-0.5,0-1-0.1-1.5-0.4
		c-0.1,0-0.1,0-0.1,0c-0.1,0-0.1,0-0.1,0.1c0,0.1,0,0.2,0,0.2s-0.1,0.1-0.1,0.1c-0.1,0-0.1,0-0.1-0.1c0,0,0-0.2,0-0.4
		c0-0.3,0-0.5,0-0.7c0-0.1,0-0.2,0-0.4c0-0.2,0-0.3,0-0.4c0-0.2,0-0.3,0.1-0.3s0.2,0.1,0.2,0.4c0.2,1,0.7,1.6,1.7,1.6
		c0.8,0,1.2-0.4,1.2-1.2c0-0.3-0.1-0.6-0.3-0.8c-0.2-0.2-0.6-0.5-1.1-0.7c-0.7-0.4-1.2-0.6-1.4-0.8c-0.3-0.3-0.4-0.6-0.4-1
		c0-0.5,0.2-0.9,0.6-1.3s0.9-0.5,1.4-0.5c0.4,0,0.7,0.1,1.1,0.3c0,0,0.1,0,0.1,0c0.1,0,0.1-0.1,0.1-0.2c0-0.1,0.1-0.2,0.2-0.2
		c0.1,0,0.1,0,0.1,0.1c0,0,0,0.1,0,0.1c0,0.2,0,0.3,0,0.6c0,0.1,0,0.4,0,0.8c0,0,0,0.1,0,0.1c0,0.1,0,0.2-0.1,0.2
		c-0.1,0-0.1-0.1-0.2-0.3c-0.1-0.4-0.3-0.7-0.5-1c-0.3-0.2-0.6-0.4-0.9-0.4c-0.7,0-1,0.4-1,1.1c0,0.3,0.1,0.6,0.3,0.8
		c0.1,0.1,0.2,0.2,0.3,0.3s0.4,0.2,1,0.5c0.6,0.3,1,0.6,1.3,0.9C246.4,11.9,246.5,12.2,246.5,12.6z"/>
	<path id="XMLID_69_" class="st0" d="M253.3,12.9c0,0,0,0.1,0,0.2c0,0.1,0,0.2,0,0.3v0.8c0,0.1,0,0.2,0,0.3l-2.4,0l-2.7,0
		c-0.2,0-0.3,0-0.3-0.1c0-0.1,0.1-0.1,0.2-0.1c0.3,0,0.5,0,0.5-0.1c0.1,0,0.1-0.2,0.1-0.5V8.8c0-0.4,0-0.6-0.1-0.6
		c-0.1,0-0.2,0-0.5,0c-0.1,0-0.2,0-0.2-0.1C248,8,248,8,248.2,8h0.3c0.1,0,0.2,0,0.3,0h0.2h0.4c0,0,0.3,0,0.7,0c0.4,0,1,0,1.6,0h0.8
		c0.2,0,0.4,0,0.6,0v0.1l0,0.2c0,0.1,0.1,0.6,0.1,1.3c0,0,0,0.1,0,0.2c0,0.1,0,0.2-0.1,0.2c-0.1,0-0.1-0.1-0.2-0.3
		c-0.1-0.7-0.4-1.1-0.7-1.3c-0.2-0.1-0.7-0.1-1.5-0.1h-0.7v2.6h0.3c0.6,0,1,0,1.1-0.1s0.2-0.4,0.3-0.8c0-0.3,0.1-0.4,0.2-0.4
		c0.1,0,0.1,0.1,0.1,0.3c0,0.1,0,0.3,0,0.5c0,0.2,0,0.4,0,0.5c0,0.6,0,1,0,1.3c0,0.1,0,0.1,0,0.2c0,0.2,0,0.2-0.1,0.2
		c-0.1,0-0.1-0.1-0.2-0.4c-0.1-0.5-0.1-0.8-0.3-0.9s-0.5-0.1-1.1-0.1h-0.3v3.1c1.4,0,2.2,0,2.4-0.1c0.4-0.1,0.6-0.6,0.7-1.4
		c0-0.1,0.1-0.2,0.2-0.2C253.3,12.5,253.3,12.6,253.3,12.9z"/>
	<path id="XMLID_71_" class="st0" d="M261,14.4c0,0.1-0.1,0.1-0.3,0.1h-0.1h-0.9h-0.4c-0.2,0-0.4,0-0.7,0h-0.4H258H258
		c-0.2,0-0.3,0-0.3-0.1c0-0.1,0.2-0.1,0.5-0.1c0.4,0,0.6-0.1,0.6-0.1c0,0,0-0.1-0.1-0.3c0-0.1-0.1-0.4-0.3-0.9l-0.2-0.5h-2
		c-0.4,1-0.6,1.5-0.6,1.7c0,0.1,0.1,0.1,0.2,0.1l0.2,0h0.2l0.1,0c0.1,0,0.2,0,0.2,0.1c0,0.1-0.1,0.1-0.3,0.1c0,0-0.2,0-0.5,0
		c-0.3,0-0.6,0-0.8,0h-0.1l-0.1,0l-0.2,0h0c-0.2,0-0.2,0-0.2-0.1c0-0.1,0.1-0.1,0.2-0.1c0.2,0,0.3,0,0.3,0c0.2,0,0.3-0.1,0.3-0.1
		c0.1,0,0.3-0.6,0.7-1.6c0.2-0.4,0.3-0.8,0.5-1.2c0.1-0.1,0.1-0.2,0.1-0.3c0-0.1,0.1-0.2,0.1-0.3c0.2-0.4,0.4-1,0.7-1.8l0.2-0.6
		l0.1-0.3c0.1-0.1,0.1-0.2,0.2-0.2c0,0,0.1,0.1,0.2,0.4c0.3,0.7,1,2.5,2.2,5.5c0.1,0.3,0.2,0.4,0.3,0.5c0,0,0.2,0,0.5,0
		C260.9,14.2,261,14.3,261,14.4z M258.2,12.1l-0.9-2.4c-0.2,0.6-0.5,1.4-0.9,2.4H258.2z"/>
	<path id="XMLID_74_" class="st0" d="M274.1,14.3c0,0.1-0.1,0.1-0.2,0.1c-0.1,0-0.2,0-0.3,0l-1.8-0.1l-1.8,0.1c-0.1,0-0.1,0-0.2,0
		c-0.2,0-0.3,0-0.3-0.1c0-0.1,0.1-0.2,0.4-0.2c0.8,0,1.2-0.1,1.2-0.2c0,0,0,0,0-0.1l-0.1-0.4l-0.1-0.2c-0.1-0.3-0.3-0.9-0.6-1.9h-3
		c-0.6,1.5-0.8,2.4-0.8,2.6c0,0.1,0.1,0.2,0.2,0.2c0,0,0.3,0,0.7,0.1c0.3,0,0.4,0.1,0.4,0.1c0,0.1-0.1,0.1-0.4,0.1
		c-0.4,0-0.9,0-1.5-0.1c-0.1,0-0.3,0-0.4,0c-0.2,0-0.3,0-0.4,0c-0.1,0-0.1,0-0.2,0c-0.1,0-0.2,0-0.2-0.1s0.1-0.1,0.4-0.1
		s0.5-0.1,0.6-0.1c0.1-0.1,0.2-0.2,0.3-0.5c1.2-3.5,2.2-6.3,3-8.4c0-0.1,0.1-0.2,0.1-0.4l0.1-0.3c0-0.1,0.1-0.2,0.1-0.2
		c0,0,0.1,0,0.1,0.1c0.1,0.4,0.4,1.1,0.8,2.3c0.3,0.9,1.2,3.2,2.5,6.9c0.1,0.2,0.2,0.3,0.3,0.4c0.1,0.1,0.4,0.1,0.7,0.1
		C274,14.2,274.1,14.3,274.1,14.3z M270.3,10.9c-0.2-0.4-0.4-1.1-0.8-2.1l-0.7-2c-0.4,1-0.9,2.4-1.4,4.1H270.3z"/>
	<path id="XMLID_77_" class="st0" d="M280.9,8.1c0,0.1-0.1,0.1-0.3,0.1c0,0-0.1,0-0.2,0h-0.2c-0.1,0-0.1,0-0.1,0.1c0,0,0,0.2,0,0.4
		v5.2c0,0.3,0,0.5,0,0.6c0,0.1-0.1,0.1-0.1,0.1c-0.1,0-0.4-0.4-1-1.2c-0.1-0.1-0.2-0.2-0.3-0.4c0,0-0.1-0.1-0.2-0.2
		c-0.5-0.6-1.3-1.8-2.6-3.5v4.5c0,0.4,0,0.5,0.1,0.6s0.3,0,0.5,0h0.1c0.1,0,0.2,0,0.2,0.1c0,0.1-0.1,0.1-0.3,0.1c0,0-0.2,0-0.5,0
		c-0.1,0-0.3,0-0.4,0c-0.1,0-0.2,0-0.3,0c-0.2,0-0.4,0-0.6,0c-0.2,0-0.2,0-0.2-0.1c0-0.1,0.1-0.1,0.3-0.1h0.1l0.2,0
		c0.2,0,0.3-0.1,0.4-0.1c0,0,0-0.2,0-0.4V9.8c0-0.7,0-1.1-0.1-1.3c-0.1-0.2-0.3-0.3-0.7-0.3c-0.2,0-0.4,0-0.4-0.1
		c0-0.1,0.1-0.1,0.2-0.1h0.1h0.8c0,0,0.1,0,0.2,0c0.1,0,0.2,0,0.3,0h0.5l3.3,4.6V8.7c0-0.2,0-0.4,0-0.4c0,0-0.1-0.1-0.2-0.1
		c-0.1,0-0.2,0-0.3,0H279c-0.2,0-0.3,0-0.3-0.1c0,0,0-0.1,0.1-0.1c0.1,0,0.4,0,1,0c0.5,0,0.8,0,0.9,0C280.8,8,280.9,8,280.9,8.1z"/>
	<path id="XMLID_79_" class="st0" d="M287.8,9.7c0,0.1-0.1,0.2-0.2,0.2c-0.1,0-0.2-0.1-0.2-0.3c0-0.4-0.1-0.7-0.2-0.9
		c-0.2-0.3-0.6-0.5-1.2-0.5c-0.1,0-0.2,0-0.4,0v5.7c0,0.2,0.1,0.3,0.4,0.3c0.3,0,0.4,0,0.4,0.1s-0.1,0.1-0.2,0.1H286
		c-0.1,0-0.2,0-0.4,0s-0.3,0-0.4,0c0,0-0.1,0-0.3,0c-0.2,0-0.5,0-0.8,0h-0.3c-0.2,0-0.3,0-0.3-0.1c0-0.1,0.2-0.1,0.5-0.1
		c0.1,0,0.2,0,0.2,0c0.1,0,0.1-0.1,0.1-0.1c0-0.1,0-0.3,0-0.7V8.2c-0.7,0-1.2,0.1-1.4,0.2c-0.2,0.2-0.4,0.5-0.4,1.1
		c0,0.2-0.1,0.3-0.2,0.3c-0.1,0-0.1-0.1-0.1-0.3c0-0.3,0-0.8,0.1-1.6h3.3c0.3,0,0.9,0,1.8,0c0.1,0,0.2,0,0.3,0l0,0.3l0,0.5l0,0.6
		l0,0.2C287.7,9.6,287.8,9.7,287.8,9.7z"/>
	<path id="XMLID_81_" class="st0" d="M295.7,14.3c0,0.1-0.1,0.1-0.4,0.1c0,0-0.1,0-0.1,0s-0.2,0-0.2,0h-1c-0.2,0-0.3,0-0.3,0h-0.2
		c-0.2,0-0.3,0-0.3-0.1c0-0.1,0.1-0.1,0.2-0.1c0.3,0,0.5-0.1,0.5-0.1c0,0,0-0.2,0-0.5v-2.6h-2.7V14c0,0.1,0.1,0.2,0.1,0.2
		c0.1,0,0.2,0,0.5,0.1c0.1,0,0.2,0,0.2,0.1s-0.1,0.1-0.3,0.1h-0.2c-0.1,0-0.3,0-0.6,0h-1.4c-0.1,0-0.2,0-0.2-0.1s0.1-0.1,0.4-0.1
		c0.2,0,0.3-0.1,0.3-0.2V8.7c0-0.3,0-0.4,0-0.4c0-0.1-0.1-0.1-0.3-0.1c-0.3,0-0.5-0.1-0.5-0.1c0-0.1,0.1-0.1,0.2-0.1h0.1
		c0.2,0,0.4,0,0.6,0c0.2,0,0.3,0,0.4,0c0.1,0,0.3,0,0.6,0c0.3,0,0.4,0,0.5,0h0.1c0.2,0,0.2,0,0.2,0.1c0,0.1-0.1,0.1-0.4,0.1
		c-0.2,0-0.3,0-0.3,0c0,0-0.1,0.1-0.1,0.3v2.2h2.7V8.9c0-0.3,0-0.5,0-0.5c0-0.1-0.1-0.2-0.3-0.1h-0.3c-0.1,0-0.2-0.1-0.2-0.1
		c0-0.1,0.1-0.1,0.3-0.1h0.3c0.1,0,0.3,0,0.6,0c0.3,0,0.4,0,0.6,0c0.2,0,0.4,0,0.5,0h0.2c0.2,0,0.3,0,0.3,0.1c0,0.1-0.1,0.1-0.2,0.1
		c-0.1,0-0.2,0-0.3,0c-0.1,0-0.2,0-0.2,0.1c0,0,0,0.2,0,0.5v4.9c0,0.3,0,0.5,0.1,0.5c0,0,0.2,0,0.5,0
		C295.6,14.2,295.7,14.3,295.7,14.3z"/>
	<path id="XMLID_83_" class="st0" d="M303.1,14.1c0,0.3-0.3,0.5-0.8,0.5c-0.5,0-0.9-0.2-1.2-0.6c-0.1-0.2-0.2-0.3-0.3-0.5
		c0-0.2-0.1-0.6-0.2-1.2c0-0.4-0.2-0.7-0.4-0.8c-0.2-0.2-0.6-0.2-1.1-0.3v2.9c0,0.1,0.2,0.2,0.7,0.2c0.1,0,0.2,0,0.2,0.1
		s-0.1,0.1-0.2,0.1c-0.1,0-0.2,0-0.3,0H299c-0.2,0-0.5,0-0.8,0c-0.3,0-0.4,0-0.5,0h-0.3c-0.3,0-0.4,0-0.4-0.1c0-0.1,0-0.1,0.1-0.1
		c0,0,0.1,0,0.1,0h0.1c0.3,0,0.5-0.1,0.5-0.2V8.5c0-0.1,0-0.2-0.1-0.2s-0.2,0-0.4,0s-0.3,0-0.3-0.1c0-0.1,0.1-0.1,0.2-0.1h0.1
		c0.2,0,0.6,0,1.3,0c0.3,0,0.6,0,0.8,0s0.4,0,0.5,0c0.6,0,1.1,0.1,1.5,0.4c0.4,0.3,0.6,0.6,0.6,1c0,0.5-0.2,0.8-0.6,1.1
		s-1,0.5-1.7,0.5c0.8,0.1,1.3,0.3,1.6,0.6c0.3,0.3,0.5,0.9,0.6,1.8c0.1,0.6,0.2,0.9,0.5,0.9c0,0,0.1,0,0.1,0c0,0,0,0,0-0.1
		c0-0.1,0-0.1,0-0.1c0-0.2,0.1-0.3,0.3-0.3C303,13.8,303.1,13.9,303.1,14.1z M300.9,9.5c0-0.8-0.4-1.3-1.3-1.3c-0.2,0-0.3,0-0.4,0.1
		c-0.1,0-0.1,0.1-0.1,0.3v2.3C300.3,10.9,300.9,10.4,300.9,9.5z"/>
	<path id="XMLID_86_" class="st0" d="M310.7,11.3c0,0.9-0.3,1.7-0.9,2.3c-0.6,0.6-1.3,1-2.2,1c-0.9,0-1.7-0.3-2.3-1
		c-0.6-0.6-0.9-1.4-0.9-2.4c0-1,0.3-1.8,0.9-2.4c0.6-0.6,1.4-0.9,2.3-0.9c0.9,0,1.6,0.3,2.2,1C310.4,9.5,310.7,10.3,310.7,11.3z
		 M309.3,11.3c0-1.1-0.2-2-0.7-2.6c-0.3-0.4-0.7-0.6-1.2-0.6c-0.7,0-1.2,0.4-1.5,1.1c-0.2,0.5-0.3,1.2-0.3,2c0,1,0.2,1.7,0.5,2.3
		c0.3,0.5,0.8,0.8,1.4,0.8C308.8,14.3,309.3,13.3,309.3,11.3z"/>
	<path id="XMLID_89_" class="st0" d="M317.2,9.5c0,0.5-0.2,0.9-0.6,1.3c-0.4,0.3-1,0.5-1.7,0.5c-0.1,0-0.3,0-0.6,0h-0.1v2.6
		c0,0.3,0.1,0.4,0.2,0.4c0.1,0,0.3,0,0.5,0c0.1,0,0.2,0,0.2,0.1c0,0-0.1,0.1-0.2,0.1c-0.1,0-0.5,0-1.1,0c-0.8,0-1.3,0-1.4,0
		c-0.1,0-0.2,0-0.2-0.1c0-0.1,0-0.1,0.1-0.1h0.2c0.2,0,0.3,0,0.4,0c0,0,0.1,0,0.1,0c0,0,0-0.2,0-0.5V8.9c0-0.4,0-0.6,0-0.6
		c0-0.1-0.2-0.1-0.5-0.1h-0.2c-0.1,0-0.2,0-0.2-0.1c0,0,0.1-0.1,0.2-0.1c0.1,0,0.5,0,1.1,0c1.2,0,2,0,2.2,0.1
		C316.7,8.2,317.2,8.7,317.2,9.5z M315.9,9.6c0-0.9-0.4-1.4-1.2-1.4c-0.2,0-0.4,0-0.4,0.1c-0.1,0-0.1,0.1-0.1,0.3V11
		C315.4,11,315.9,10.5,315.9,9.6z"/>
	<path id="XMLID_92_" class="st0" d="M325,11.3c0,0.9-0.3,1.7-0.9,2.3c-0.6,0.6-1.3,1-2.2,1c-0.9,0-1.7-0.3-2.3-1
		c-0.6-0.6-0.9-1.4-0.9-2.4c0-1,0.3-1.8,0.9-2.4c0.6-0.6,1.4-0.9,2.3-0.9c0.9,0,1.6,0.3,2.2,1C324.7,9.5,325,10.3,325,11.3z
		 M323.7,11.3c0-1.1-0.2-2-0.7-2.6c-0.3-0.4-0.7-0.6-1.2-0.6c-0.7,0-1.2,0.4-1.5,1.1c-0.2,0.5-0.3,1.2-0.3,2c0,1,0.2,1.7,0.5,2.3
		c0.3,0.5,0.8,0.8,1.4,0.8C323.1,14.3,323.7,13.3,323.7,11.3z"/>
	<path id="XMLID_95_" class="st0" d="M332,13.2c0,0.5,0,1,0,1.3c-0.1,0-0.1,0-0.2,0c0,0-0.1,0-0.2,0s-0.3,0-0.5,0h-0.7l-2.4,0h-1.2
		c-0.1,0-0.2,0-0.2-0.1c0-0.1,0.2-0.1,0.6-0.1c0.1,0,0.2,0,0.2-0.1c0,0,0-0.1,0-0.3V9.1c0-0.5,0-0.8-0.1-0.8c0,0-0.1,0-0.2,0
		c-0.1,0-0.2,0-0.2,0c-0.1,0-0.2,0-0.2-0.1c0-0.1,0.1-0.1,0.2-0.1h2c0.1,0,0.2,0,0.3,0c0.2,0,0.3,0,0.3,0.1c0,0.1-0.2,0.1-0.5,0.1
		c-0.2,0-0.2,0-0.3,0.1c0,0.1,0,0.3,0,0.6v5.3c0.4,0,0.6,0,0.8,0c1,0,1.7-0.1,1.9-0.3c0.2-0.2,0.3-0.5,0.4-1c0-0.2,0.1-0.3,0.2-0.3
		C332,12.5,332,12.7,332,13.2z"/>
	<path id="XMLID_97_" class="st0" d="M339.8,11.3c0,0.9-0.3,1.7-0.9,2.3c-0.6,0.6-1.3,1-2.2,1c-0.9,0-1.7-0.3-2.3-1
		c-0.6-0.6-0.9-1.4-0.9-2.4c0-1,0.3-1.8,0.9-2.4c0.6-0.6,1.4-0.9,2.3-0.9c0.9,0,1.6,0.3,2.2,1C339.5,9.5,339.8,10.3,339.8,11.3z
		 M338.4,11.3c0-1.1-0.2-2-0.7-2.6c-0.3-0.4-0.7-0.6-1.2-0.6c-0.7,0-1.2,0.4-1.5,1.1c-0.2,0.5-0.3,1.2-0.3,2c0,1,0.2,1.7,0.5,2.3
		c0.3,0.5,0.8,0.8,1.4,0.8C337.8,14.3,338.4,13.3,338.4,11.3z"/>
	<path id="XMLID_100_" class="st0" d="M347.8,12.5c0,0-0.1,0.1-0.3,0.1h-0.5c0,0-0.1,0.1-0.1,0.1s0,0.2,0,0.5v0.6
		c-0.6,0.5-1.3,0.8-2.2,0.8c-1,0-1.9-0.3-2.5-0.9s-0.9-1.4-0.9-2.4c0-1,0.3-1.8,0.9-2.5c0.6-0.6,1.4-0.9,2.4-0.9
		c0.5,0,1.1,0.2,1.6,0.5c0,0,0.1,0,0.1,0c0.1,0,0.1-0.1,0.2-0.2c0.1-0.2,0.1-0.3,0.2-0.3s0.1,0,0.1,0.1c0,0,0,0.1,0,0.2
		c0,0.3,0,0.8,0,1.6c0,0.2-0.1,0.3-0.2,0.3c-0.1,0-0.1-0.1-0.1-0.2c0-0.6-0.2-1.1-0.5-1.5s-0.7-0.5-1.3-0.5c-0.6,0-1.1,0.3-1.5,0.8
		c-0.4,0.6-0.5,1.3-0.5,2.3c0,0.9,0.2,1.7,0.5,2.2c0.4,0.5,0.9,0.8,1.5,0.8c0.6,0,0.9-0.2,1-0.5c0-0.1,0.1-0.3,0.1-0.6
		c0-0.3,0-0.5-0.1-0.6c0,0-0.2-0.1-0.5-0.1h-0.1c0,0-0.1,0-0.1,0c-0.1,0-0.1,0-0.1-0.1c0-0.1,0.1-0.1,0.3-0.1h0.4c0.1,0,0.2,0,0.3,0
		c0.1,0,0.2,0,0.2,0c0.7,0,1,0,1.1,0h0.3C347.7,12.3,347.8,12.4,347.8,12.5z"/>
	<path id="XMLID_102_" class="st0" d="M354.8,8.1c0,0.1-0.1,0.1-0.2,0.1c-0.3,0-0.5,0.1-0.6,0.2c-0.1,0.1-0.3,0.4-0.6,1.1
		c-0.3,0.6-0.6,1.1-0.9,1.6c-0.1,0.2-0.2,0.4-0.2,0.4c0,0.1,0,0.3,0,0.5v1.8c0,0.2,0,0.3,0.1,0.3s0.3,0.1,0.6,0.1
		c0.2,0,0.3,0,0.3,0.1s-0.1,0.1-0.2,0.1h-0.1h-0.3h-0.4c-0.1,0-0.2,0-0.4,0c-0.2,0-0.3,0-0.4,0c0,0-0.1,0-0.2,0c-0.2,0-0.4,0-0.7,0
		h-0.1c-0.1,0-0.2,0-0.2-0.1c0-0.1,0.1-0.1,0.4-0.1c0.3,0,0.4,0,0.5-0.1c0,0,0.1-0.2,0.1-0.5v-1.9c-0.1-0.1-0.1-0.3-0.3-0.5l-1-1.7
		c-0.1-0.3-0.3-0.5-0.3-0.6s-0.2-0.3-0.3-0.5c-0.1-0.1-0.3-0.1-0.7-0.2c-0.1,0-0.2,0-0.2-0.1c0-0.1,0.1-0.1,0.2-0.1c0,0,0.1,0,0.3,0
		c0.2,0,0.4,0,0.6,0h0.4h1.3c0,0,0.1,0,0.2,0c0.1,0,0.2,0,0.2,0.1c0,0.1-0.1,0.1-0.4,0.1c-0.4,0-0.6,0.1-0.6,0.2
		c0,0.2,0.5,1.1,1.5,2.8c1-1.8,1.4-2.7,1.4-2.8c0-0.1-0.1-0.1-0.2-0.1H353h-0.1c-0.2,0-0.2,0-0.2-0.1c0-0.1,0.1-0.1,0.2-0.1h0.6h0.3
		C354.4,7.9,354.8,8,354.8,8.1z"/>
</g>
<g id="XMLID_56_">
</g>
<g id="XMLID_157_">
</g>
<g id="XMLID_158_">
</g>
<g id="XMLID_159_">
</g>
<g id="XMLID_160_">
</g>
<g id="XMLID_161_">
</g>
</svg>
